Coordinates
version=1
nRows=8
nColumns=40
inDegrees=yes
endheader
time	pelvis_tilt	pelvis_list	pelvis_rotation	pelvis_tx	pelvis_ty	pelvis_tz	hip_flexion_r	hip_adduction_r	hip_rotation_r	knee_angle_r	knee_angle_r_beta	ankle_angle_r	subtalar_angle_r	mtp_angle_r	hip_flexion_l	hip_adduction_l	hip_rotation_l	knee_angle_l	knee_angle_l_beta	ankle_angle_l	subtalar_angle_l	mtp_angle_l	lumbar_extension	lumbar_bending	lumbar_rotation	arm_flex_r	arm_add_r	arm_rot_r	elbow_flex_r	pro_sup_r	wrist_flex_r	wrist_dev_r	arm_flex_l	arm_add_l	arm_rot_l	elbow_flex_l	pro_sup_l	wrist_flex_l	wrist_dev_l
1760625094.29918003	      7.62808373	     -2.09264878	      0.44097624	      0.15467052	      0.85758907	     -0.00099434	     80.00000000	     -7.00000000	      0.00000000	     80.00000000	      1.39626340	      0.00000000	      0.00000000	      0.00000000	     80.00000000	     -7.00000000	      0.00000000	     80.00000000	      1.39626340	      0.00000000	      0.00000000	      0.00000000	    -16.71178008	     -1.42665189	      1.98275459	      6.60739901	     -9.75933072	      4.43843242	     98.92231082	    179.53821405	      9.69069616	     23.64109726	      0.59619679	     -8.45380874	     -1.92825697	    110.34863916	    179.99984796	     17.28705944	     27.22883344
1760625094.30918002	      7.97310047	     -2.07613149	      0.49848556	      0.15957136	      0.85320312	     -0.00045924	     80.00000000	     -7.00000000	      0.00000000	     80.00000000	      1.39626340	      0.00000000	      0.00000000	      0.00000000	     80.00000000	     -7.00000000	      0.00000000	     80.00000000	      1.39626340	      0.00000000	      0.00000000	      0.00000000	    -16.21723020	     -1.45668108	      1.98423643	      6.06086519	     -9.85080154	      4.48196425	     99.56158219	    179.54956811	      9.74298902	     23.66358788	      0.14940044	     -8.69865052	     -1.84994819	    111.02354618	    179.99984796	     17.24545362	     27.22736961
1760625094.31918001	      7.57648223	     -2.09290719	      0.45352988	      0.15467255	      0.85749533	     -0.00110846	     80.00000000	     -7.00000000	      0.00000000	     80.00000000	      1.39626340	      0.00000000	      0.00000000	      0.00000000	     80.00000000	     -7.00000000	      0.00000000	     80.00000000	      1.39626340	      0.00000000	      0.00000000	      0.00000000	    -16.65203132	     -1.41115986	      1.95198668	      6.60875228	     -9.77004690	      4.41787772	     98.91652177	    179.53103475	      9.79921783	     23.65951857	      0.61338043	     -8.43905387	     -1.94933838	    110.35648541	    179.99984796	     17.20537559	     27.22768361
1760625094.32918000	      7.57645455	     -2.09290455	      0.45336483	      0.15468501	      0.85749435	     -0.00108991	     80.00000000	     -7.00000000	      0.00000000	     80.00000000	      1.39626340	      0.00000000	      0.00000000	      0.00000000	     80.00000000	     -7.00000000	      0.00000000	     80.00000000	      1.39626340	      0.00000000	      0.00000000	      0.00000000	    -16.65217667	     -1.41106410	      1.95170429	      6.60889435	     -9.77025535	      4.41777776	     98.91655681	    179.53099754	      9.79922711	     23.65952253	      0.61345811	     -8.43884075	     -1.94935505	    110.35654445	    179.99984796	     17.20522756	     27.22766894
1760625094.33917999	      7.57698225	     -2.09285168	      0.45193065	      0.15473715	      0.85753964	     -0.00110173	     80.00000000	     -7.00000000	      0.00000000	     80.00000000	      1.39626340	      0.00000000	      0.00000000	      0.00000000	     80.00000000	     -7.00000000	      0.00000000	     80.00000000	      1.39626340	      0.00000000	      0.00000000	      0.00000000	    -16.65146545	     -1.41038420	      1.95044421	      6.60891971	     -9.77092288	      4.41735847	     98.91652151	    179.53089949	      9.79925118	     23.65954207	      0.61539210	     -8.43885483	     -1.94996287	    110.35757438	    179.99984796	     17.20480010	     27.22764729
1760625094.34917998	      7.57749284	     -2.09254017	      0.45008855	      0.15479253	      0.85758723	     -0.00110886	     80.00000000	     -7.00000000	      0.00000000	     80.00000000	      1.39626340	      0.00000000	      0.00000000	      0.00000000	     80.00000000	     -7.00000000	      0.00000000	     80.00000000	      1.39626340	      0.00000000	      0.00000000	      0.00000000	    -16.65070565	     -1.40933365	      1.94879577	      6.60860017	     -9.77210020	      4.41675822	     98.91623938	    179.53078227	      9.79928300	     23.65957681	      0.61807302	     -8.43917046	     -1.95082195	    110.35893199	    179.99984796	     17.20432248	     27.22762705
1760625094.35917997	      7.58423846	     -2.08961811	      0.43903050	      0.15484601	      0.85761079	     -0.00118854	     80.00000000	     -7.00000000	      0.00000000	     80.00000000	      1.39626340	      0.00000000	      0.00000000	      0.00000000	     80.00000000	     -7.00000000	      0.00000000	     80.00000000	      1.39626340	      0.00000000	      0.00000000	      0.00000000	    -16.64512881	     -1.40111659	      1.93931909	      6.60459270	     -9.78121070	      4.41250621	     98.91280330	    179.52981730	      9.79960089	     23.65979043	      0.63673306	     -8.44387867	     -1.95870442	    110.36912258	    179.99984796	     17.20071614	     27.22756046
1760625094.36917996	      7.58359915	     -2.08978784	      0.43885262	      0.15488667	      0.85759003	     -0.00120275	     80.00000000	     -7.00000000	      0.00000000	     80.00000000	      1.39626340	      0.00000000	      0.00000000	      0.00000000	     80.00000000	     -7.00000000	      0.00000000	     80.00000000	      1.39626340	      0.00000000	      0.00000000	      0.00000000	    -16.64579214	     -1.40103792	      1.93921374	      6.60463726	     -9.78155574	      4.41235930	     98.91260683	    179.52976635	      9.79962047	     23.65979155	      0.63743269	     -8.44422549	     -1.95910874	    110.36937774	    179.99984796	     17.20055765	     27.22755758
